***********************************************************************************
                     Bedazzled =Special Edition= [2000]

Hopeless dweeb Elliot Richards is granted 7 wishes by the devil to snare Allison, the girl of his dreams, in exchange for his soul.

Director:
Harold Ramis
Writers:
Peter Cook (1967 story), Peter Cook (1967 screenplay)
Stars:
Brendan Fraser, Elizabeth Hurley and Frances O'Connor
***********************************************************************************
Format                                   : Matroska
Format version                           : Version 2
File size                                : 1.05 GiB
Duration                                 : 1h 33mn
Overall bit rate                         : 1 614 Kbps

Video
ID                                       : 1
Format                                   : AVC
Format/Info                              : Advanced Video Codec
Format profile                           : High@L3.0
Duration                                 : 1h 33mn
Bit rate                                 : 1 134 Kbps
Width                                    : 720 pixels
Height                                   : 368 pixels
Frame rate mode                          : Variable
Frame rate                               : 23.976 fps
Stream size                              : 755 MiB (70%)
Writing library                          : x264 core 112
Language                                 : English
Default                                  : Yes
Forced                                   : No

Audio
Format                                   : AC-3
Format/Info                              : Audio Coding 3
Duration                                 : 1h 33mn
Bit rate mode                            : Constant
Bit rate                                 : 448 Kbps
Channel(s)                               : 6 channels
Sampling rate                            : 48.0 KHz
Bit depth                                : 16 bits
Compression mode                         : Lossy
Stream size                              : 298 MiB (28%)
Language                                 : English
Default                                  : Yes
Forced                                   : No

***********************************************************************************
NOTE FOR MY MOVIE TORRENTS: Each movie/episode has been hashed with an MD5 checker and I am listing the hash below. 
***********************************************************************************
Movie MD5:  5AD0D75F8AD94B85EB04DF8BDC0E777D
----------------------------------------------------------------------------
MD5 Checker for Linux:  http://sinf.gr/en/hashcalc.html
MD5 Checker for Windows:  http://getmd5checker.com/ 
----------------------------------------------------------------------------
 This was personally encoded by me, Carjacker,from the Special Edition. Nothing particualar to save off the Special Edition disc,except for interviews and trash stuff- didnt think you all would be interested,so,just the movie was recoded. Enjoy!
Leave your thoughts/opinions and ratings on the A/V of this film for others to see. Thanks! 
Pease seed as you DL so others may also enjoy the movie! 
**Requests are welcome!